Inverse Dynamics Generalized Forces
version=1
nRows=6
nColumns=34
inDegrees=no
endheader 
time	pelvis_tilt_moment	pelvis_list_moment	pelvis_rotation_moment	pelvis_tx_force	pelvis_ty_force	pelvis_tz_force	hip_flexion_l_moment	hip_adduction_l_moment	hip_rotation_l_moment	hip_flexion_r_moment	hip_adduction_r_moment	hip_rotation_r_moment	knee_angle_l_moment	knee_angle_r_moment	ankle_angle_l_moment	ankle_angle_r_moment	subtalar_angle_l_moment	subtalar_angle_r_moment	mtp_angle_l_moment	mtp_angle_r_moment	lumbar_extension_moment	lumbar_bending_moment	lumbar_rotation_moment	arm_flex_l_moment	arm_add_l_moment	arm_rot_l_moment	arm_flex_r_moment	arm_add_r_moment	arm_rot_r_moment	elbow_flex_l_moment	elbow_flex_r_moment	pro_sup_l_moment	pro_sup_r_moment	
          0.00000000	         -0.00000234	          0.00000035	         -0.00000012	         -0.00000139	          0.00000519	         -0.00000128	        -50.72066676	         17.99955809	         -1.51930365	         64.06475399	        -12.96956478	          3.67384698	         29.39140223	        -29.52818553	         -1.03174563	        -24.89235875	          0.47762802	         11.81931164	         -0.05487839	          0.18985976	          3.36180124	        -15.44893969	         -4.84665381	         -0.56709880	         -0.61174933	          0.10076383	         -0.17077429	         -0.78421183	         -0.05865147	          0.35075045	          0.65137867	          0.01990408	         -0.00865934	
          0.01000000	         -0.00000047	         -0.00000078	         -0.00000005	          0.00000040	          0.00000433	          0.00000002	        -51.33157491	          3.34516734	          0.63598286	         67.76381122	        -23.87212831	          3.55261114	         28.73147632	        -30.24790756	         -0.53543162	        -28.08703081	         -0.03245042	         11.56825468	         -0.05523775	          0.45487351	          0.63055646	        -18.68065620	         -8.20685720	         -0.39928574	         -0.47033226	          0.20529931	         -0.84547495	         -1.44349765	         -0.03989345	          0.47703072	          0.47671924	          0.03782071	          0.00240363	
          0.02000000	         -0.00000165	         -0.00000107	          0.00000008	         -0.00000115	          0.00000002	          0.00000073	        -50.64536326	         -8.45436061	          2.43711216	         66.18618680	        -31.99949799	          3.23717981	         28.23457940	        -27.65007531	         -0.34694188	        -31.25356573	         -0.45184658	         10.99165641	         -0.05314194	          0.96281824	          0.64803676	        -20.03869356	         -9.81020881	         -0.34467836	         -0.53446328	          0.27399789	         -0.98207684	         -1.83039911	         -0.02441811	          0.54749182	          0.47982420	          0.05156902	          0.01080867	
          0.03000000	         -0.00000006	         -0.00000340	          0.00000023	          0.00000125	          0.00000421	          0.00000286	        -48.13388290	        -16.72141283	          3.64292497	         63.74288537	        -35.20719913	          2.96874688	         26.33796298	        -23.92914590	          0.15507165	        -34.68369580	         -0.76658446	         10.59314549	         -0.05045326	          1.87197355	         -0.73739385	        -20.89751136	        -10.42783123	         -0.64625989	         -0.61275429	          0.34702695	         -1.10609650	         -2.18932738	          0.00262631	          0.49705086	          0.45934689	          0.06634537	          0.02078074	
          0.04000000	         -0.00000015	         -0.00000306	          0.00000023	          0.00000098	          0.00000404	          0.00000269	        -49.10150201	        -21.75782458	          4.30868444	         64.72513894	        -34.93822880	          2.66940600	         25.80302522	        -22.25514194	          0.45978785	        -37.07146749	         -0.99915702	         10.12877436	         -0.05053276	          2.78359027	         -1.55400556	        -21.38580690	        -11.33719105	         -0.44185531	         -0.10950111	          0.39566020	         -1.34708336	         -2.63592849	         -0.01948128	          0.59445833	          0.28064281	          0.07123308	          0.02410121	
          0.05000000	         -0.00000045	         -0.00000343	          0.00000021	          0.00000082	          0.00000569	          0.00000280	        -50.06464424	        -21.91228082	          4.18546302	         62.51406845	        -31.97898953	          2.33760842	         25.96191506	        -18.56621749	          0.53937236	        -39.72286315	         -1.02169264	          9.95155945	         -0.05055214	          3.83440266	          0.76468751	        -19.72511367	        -10.90489182	         -0.11048751	          0.41196011	          0.39908345	         -1.17347791	         -2.73297736	         -0.04054097	          0.72385591	          0.24325897	          0.06747493	          0.02338598	
